<?xml version="1.0" encoding="UTF-8" standalone="no"?>
<svg
   xmlns:osb="http://www.openswatchbook.org/uri/2009/osb"
   xmlns:dc="http://purl.org/dc/elements/1.1/"
   xmlns:cc="http://creativecommons.org/ns#"
   xmlns:rdf="http://www.w3.org/1999/02/22-rdf-syntax-ns#"
   xmlns:svg="http://www.w3.org/2000/svg"
   xmlns="http://www.w3.org/2000/svg"
   xmlns:sodipodi="http://sodipodi.sourceforge.net/DTD/sodipodi-0.dtd"
   xmlns:inkscape="http://www.inkscape.org/namespaces/inkscape"
   width="210mm"
   height="297mm"
   viewBox="0 0 210 297"
   version="1.1"
   id="svg8"
   inkscape:version="1.0.1 (3bc2e813f5, 2020-09-07)"
   sodipodi:docname="my-status-page.inkscape.svg">
  <defs
     id="defs2">
    <linearGradient
       id="linearGradient3048"
       osb:paint="solid">
      <stop
         style="stop-color:#ff7700;stop-opacity:1;"
         offset="0"
         id="stop3046" />
    </linearGradient>
  </defs>
  <sodipodi:namedview
     id="base"
     pagecolor="#ffffff"
     bordercolor="#666666"
     borderopacity="1.0"
     inkscape:pageopacity="0.0"
     inkscape:pageshadow="2"
     inkscape:zoom="0.38041363"
     inkscape:cx="486.60483"
     inkscape:cy="506.57294"
     inkscape:document-units="mm"
     inkscape:current-layer="layer2"
     inkscape:document-rotation="0"
     showgrid="false"
     inkscape:window-width="1438"
     inkscape:window-height="1040"
     inkscape:window-x="234"
     inkscape:window-y="0"
     inkscape:window-maximized="0"
     inkscape:snap-midpoints="false" />
  <metadata
     id="metadata5">
    <rdf:RDF>
      <cc:Work
         rdf:about="">
        <dc:format>image/svg+xml</dc:format>
        <dc:type
           rdf:resource="http://purl.org/dc/dcmitype/StillImage" />
        <dc:title></dc:title>
      </cc:Work>
    </rdf:RDF>
  </metadata>
  <g
     inkscape:groupmode="layer"
     id="layer2"
     inkscape:label="Globe"
     style="display:inline">
    <path
       id="globe"
       fill="none"
       stroke="#000000"
       stroke-width="0.352778"
       d="m 91.87155,1.7617547 c 12.36134,3.284362 21.90045,7.3624748 31.75001,15.8291453 2.38831,2.05317 6.67809,5.83495 8.1139,8.51253 0,0 -13.40556,3.60186 -13.40556,3.60186 -1.10067,0.23636 -3.93348,1.06186 -4.90362,0.74084 -1.06539,-0.35278 -1.5875,-1.66511 -2.10255,-2.57881 0,0 -3.37256,-5.64445 -3.37256,-5.64445 C 104.89611,17.33337 100.76861,12.144008 97.01153,7.7589785 94.94778,5.3495057 93.79066,4.6298387 91.87155,1.7617547 Z M 19.552085,26.10343 c 1.41111,-2.63172 6.07131,-6.85095 8.46667,-8.84767 6.32531,-5.277557 13.79009,-9.6766985 21.51945,-12.5588933 2.52589,-0.941917 6.54756,-2.360084 9.17223,-2.582335 -1.70745,2.550585 -3.45017,4.046363 -5.37986,6.3500028 -3.68653,4.3991405 -7.29545,8.8829455 -10.34698,13.7583355 0,0 -3.40431,5.64445 -3.40431,5.64445 -0.47625,0.87136 -1.07597,2.23661 -2.09903,2.55058 -0.85019,0.26106 -3.85586,-0.56797 -4.87539,-0.78669 0,0 -13.05278,-3.52778 -13.05278,-3.52778 z M 70.3521,3.5256437 c 0,0 0.35278,9.8777823 0.35278,9.8777823 0,0 0,21.166674 0,21.166674 0,0 -5.291665,-0.35278 -5.291665,-0.35278 0,0 -17.99167,-1.76389 -17.99167,-1.76389 0.95602,-2.13783 2.68111,-4.72017 3.99697,-6.70278 6.23358,-9.36272 11.07017,-14.361586 18.933585,-22.2250063 z m 9.87778,0 c 2.52589,1.806223 7.05909,6.7133643 9.22514,9.1722263 4.52262,5.13645 11.11604,13.64545 14.0582,19.75556 0,0 -17.63889,1.76389 -17.63889,1.76389 0,0 -5.64445,0.35278 -5.64445,0.35278 0,0 0,-31.0444563 0,-31.0444563 z M 1.913189,69.49512 c 0.194028,-8.79828 3.227918,-19.58271 6.9779473,-27.51668 0,0 2.9986127,-5.64445 2.9986127,-5.64445 0.486833,-0.8255 1.040695,-1.905 2.049639,-2.15194 0.987777,-0.24342 4.751917,1.15005 5.965477,1.49578 0,0 14.11111,3.47839 14.11111,3.47839 -4.12044,10.36461 -6.15597,19.2405 -7.05555,30.3389 0,0 -25.047236,0 -25.047236,0 z M 117.27156,39.15622 c 0,0 14.11112,-3.47839 14.11112,-3.47839 1.2065,-0.3422 4.98475,-1.7392 5.96194,-1.49578 0.97014,0.23988 1.53106,1.35466 2.00378,2.15194 1.14653,1.94734 2.26837,3.92289 3.175,5.99723 3.69006,8.46667 6.64634,17.83998 6.85095,27.1639 0,0 -25.40001,0 -25.40001,0 -0.77258,-5.84906 -1.21003,-11.53584 -2.72697,-17.28612 0,0 -3.97581,-13.05278 -3.97581,-13.05278 z m -74.083355,1.76389 c 3.64067,0.91722 17.68476,2.46239 21.51945,2.46944 0,0 5.997225,0.35278 5.997225,0.35278 0,0 0,25.75279 0,25.75279 0,0 -34.572235,0 -34.572235,0 0.0529,-5.81731 1.78506,-13.82537 3.52073,-19.40279 0.91016,-2.92806 2.06022,-6.51228 3.53483,-9.17222 z m 37.041675,2.82222 c 0,0 5.64445,-0.35278 5.64445,-0.35278 0,0 13.75834,-1.15711 13.75834,-1.15711 0,0 5.29166,-0.73025 5.29166,-0.73025 0.74084,-0.0776 1.98262,-0.34925 2.67759,0 1.15006,0.51153 2.52589,5.15761 2.96686,6.47347 2.11314,6.33237 4.17336,14.84843 4.23334,21.51946 0,0 -34.57224,0 -34.57224,0 0,0 0,-25.75279 0,-25.75279 z M 1.913189,78.31456 c 0,0 25.047236,0 25.047236,0 0,0 0.75847,6.70278 0.75847,6.70278 0,0 1.8415,9.87779 1.8415,9.87779 0,0 4.10281,13.75833 4.10281,13.75833 0,0 -14.11112,3.4784 -14.11112,3.4784 -1.0795,0.30691 -4.787196,1.67216 -5.609169,1.48872 -0.963084,-0.2152 -1.541639,-1.36172 -2.003778,-2.14489 C 10.792609,109.52835 9.6707763,107.5528 8.7641363,105.47846 5.049385,96.95888 2.117801,87.6914 1.913189,78.31456 Z m 34.219456,0 c 0,0 34.572235,0 34.572235,0 0,0 0,19.402791 0,19.402791 -2.511775,0.58914 -4.198055,1.62983 -5.961945,3.531309 -1.41464,1.52752 -1.50989,2.6035 -2.89278,3.09033 -1.21708,0.43039 -2.93158,0.37042 -4.19806,0.49389 0,0 -9.525,1.09714 -9.525,1.09714 -1.19592,0.16228 -4.10281,0.93839 -5.06236,0.25753 -1.01953,-0.71967 -2.36361,-5.34459 -2.81517,-6.706309 -2.01083,-6.032501 -3.97933,-14.827261 -4.11692,-21.166681 z m 44.097235,0 c 0,0 34.57224,0 34.57224,0 -0.0952,4.3039 -1.13242,9.53206 -2.04259,13.75834 -0.27164,1.25236 -0.8255,4.18395 -1.73214,5.03062 -1.01247,0.948971 -5.95842,1.227661 -7.51417,1.368771 -6.21594,0.81492 -17.19792,1.0407 -23.28334,0 0,0 0,-20.157731 0,-20.157731 z m 43.74446,0 c 0,0 25.40001,0 25.40001,0 -1.85914,2.58939 -4.82247,4.65315 -7.40833,6.49817 -6.6534,4.74839 -12.75998,7.51417 -20.46112,10.0824 0,0 1.31586,-7.05556 1.31586,-7.05556 0,0 1.15358,-9.52501 1.15358,-9.52501 z m -62.441685,35.2778 c 1.6122,3.937 -0.15522,6.0713 -1.08303,9.525 -0.32102,1.18886 -0.32102,1.9685 -0.32808,3.175 -0.0106,2.06375 0.30692,7.15786 -0.35278,8.81945 -4.04989,-5.70442 -9.87778,-13.42673 -12.7,-19.75556 0,0 14.46389,-1.76389 14.46389,-1.76389 z m -41.98057,8.11389 c 0,0 13.05278,-3.60186 13.05278,-3.60186 0,0 4.80484,-0.75142 4.80484,-0.75142 0,0 1.78858,2.23661 1.78858,2.23661 0,0 3.14325,5.64445 3.14325,5.64445 0,0 8.03276,11.99445 8.03276,11.99445 0,0 5.86669,7.76111 5.86669,7.76111 -3.04094,-0.43039 -7.02028,-2.00378 -9.87778,-3.22792 -6.91445,-2.9598 -13.35264,-6.99206 -19.05001,-11.89567 -2.50825,-2.159 -6.11364,-5.33753 -7.76111,-8.15975 z"
       style="fill:#cccccc;fill-opacity:1;stroke:#777777;stroke-width:1.253;stroke-miterlimit:4;stroke-dasharray:none;stroke-opacity:1" />
  </g>
  <g
     inkscape:groupmode="layer"
     id="layer3"
     inkscape:label="Arrow"
     style="display:inline">
    <path
       id="arrow"
       fill="none"
       stroke="#000000"
       stroke-width="0.352778"
       d="m 169.83547,82.19512 c -0.94897,2.10609 -2.29306,3.24203 -3.78178,4.93889 -3.29494,3.75709 -7.38717,7.35542 -11.38767,10.361091 -14.26634,10.720919 -30.64229,16.732259 -48.33057,18.623149 0,0 -7.761124,0.64911 -7.761124,0.64911 -6.92503,0.0106 -13.94178,0.28575 -20.81389,-0.60678 -6.1454,-0.80081 -6.67809,-0.5715 -6.70278,-3.97934 0,0 0,-2.82222 0,-2.82222 0.0212,-1.00542 -0.0106,-2.16958 1.11125,-2.59644 0.8255,-0.3175 3.19969,0.24694 4.18041,0.381 0,0 9.52501,0.80433 9.52501,0.80433 0,0 4.58611,0.35278 4.58611,0.35278 0,0 2.82222,0 2.82222,0 0,0 4.58612,-0.33867 4.58612,-0.33867 18.058704,-0.78669 35.810484,-5.92667 50.447244,-16.81692 3.99697,-2.97392 7.66939,-6.31473 10.99609,-10.00831 0.70202,-0.77964 3.17147,-3.31259 3.48897,-4.13103 0.35983,-0.93134 -0.46567,-1.46756 -1.09008,-2.01436 -1.19592,-1.05128 -4.07812,-2.84339 -3.13973,-4.75192 0.62795,-1.28411 3.25614,-2.06022 4.56142,-2.50825 0,0 11.28889,-4.02873 11.28889,-4.02873 1.24884,-0.46919 3.57364,-1.55575 4.85776,-0.99836 1.04775,0.45509 1.13947,1.55928 1.07597,2.55764 0,0 -1.08303,6.35 -1.08303,6.35 0,0 -1.82033,10.23056 -1.82033,10.23056 -0.22578,1.32998 -0.35278,3.09387 -1.98614,3.39725 -1.70392,0.32103 -4.08517,-2.14488 -5.63034,-3.04447 z"
       style="fill:#1abc9c;fill-opacity:1;stroke:none;stroke-opacity:0" />
  </g>
  <g
     inkscape:groupmode="layer"
     id="layer4"
     inkscape:label="red"
     style="display:inline">
    <path
       id="red"
       fill="none"
       stroke="#000000"
       stroke-width="0.352778"
       d="m 70.080462,124.4685 c 1.49225,-0.22931 4.91772,0.45508 6.62164,0.66675 0,0 7.40834,0.65617 7.40834,0.65617 1.07597,0.14111 3.76767,0.0388 4.47675,0.508 0.97367,0.64911 0.81139,2.14136 0.81492,3.16794 0,0 0,37.04168 0,37.04168 0,0 0,13.05279 0,13.05279 0,1.64041 0.25047,4.21569 -0.70909,5.57036 -1.11125,1.57692 -2.87514,1.48167 -4.58258,1.48519 0,0 -10.58334,0 -10.58334,0 -4.30036,-0.06 -4.57906,-2.75872 -4.58611,-6.35 0,0 0,-41.98057 0,-41.98057 0,0 0,-10.93612 0,-10.93612 0.0212,-1.42169 -0.0988,-2.04964 1.13947,-2.88219 z"
       style="fill:#dd0000;fill-opacity:1;stroke:none;stroke-opacity:1" />
  </g>
  <g
     inkscape:groupmode="layer"
     id="layer5"
     inkscape:label="orange"
     style="display:inline">
    <path
       id="orange"
       fill="none"
       stroke="#000000"
       stroke-width="0.352778"
       d="m 116.91878,123.64653 c 1.9932,0.0388 2.08139,0.83608 2.11667,2.64583 0,0 0,17.99167 0,17.99167 0,0 0,32.10279 0,32.10279 0,2.77989 0.86783,8.64306 -2.13078,9.9307 -0.82197,0.35278 -1.92264,0.29986 -2.80811,0.29986 0,0 -9.87778,0 -9.87778,0 -3.90878,-0.0529 -5.27403,-1.90147 -5.29167,-5.64444 0,0 0,-19.75557 0,-19.75557 0,0 0,-32.10279 0,-32.10279 0.004,-1.03716 -0.16581,-2.45886 0.81492,-3.11503 0.82903,-0.55033 3.62303,-0.40216 4.82953,-0.56091 0,0 12.34722,-1.79211 12.34722,-1.79211 z"
       style="fill:#ee6600;fill-opacity:1;stroke:none;stroke-width:0.353;stroke-miterlimit:4;stroke-dasharray:none" />
  </g>
  <g
     inkscape:groupmode="layer"
     id="layer6"
     inkscape:label="yellow"
     style="display:inline">
    <path
       id="yellow"
       fill="none"
       stroke="#000000"
       stroke-width="0.352778"
       d="m 146.89785,113.19019 c 2.06375,0.17286 1.76742,1.53458 1.77095,3.22439 0,0 0,20.10834 0,20.10834 0,0 0,38.10001 0,38.10001 0,3.66537 1.05127,10.0577 -3.17501,11.68048 -0.93838,0.35983 -2.17664,0.31397 -3.175,0.31397 0,0 -9.525,0 -9.525,0 -2.7552,-0.0388 -4.1275,-0.9913 -4.27567,-3.88055 0,0 0,-3.88056 0,-3.88056 0,0 0,-16.93334 0,-16.93334 0,0 0,-38.10001 0,-38.10001 0.0459,-1.13948 -0.11289,-2.42712 0.85725,-3.23145 0,0 5.88787,-2.27189 5.88787,-2.27189 0,0 4.93889,-2.01436 4.93889,-2.01436 2.06375,-0.94545 4.6108,-2.52236 6.69572,-3.11503 z"
       style="fill:#ffbb00;fill-opacity:1;stroke:none" />
  </g>
  <g
     inkscape:groupmode="layer"
     id="layer7"
     inkscape:label="green"
     style="display:inline">
    <path
       id="green"
       fill="none"
       stroke="#000000"
       stroke-width="0.352778"
       d="m 171.59936,94.56352 c 0.97014,-0.25753 5.6762,-0.24342 6.29003,0.53269 0.62089,0.79375 0.41275,4.310951 0.41275,5.44336 0,0 0,14.4639 0,14.4639 0,0 0,55.03335 0,55.03335 0,0 0,11.64167 0,11.64167 -0.007,1.36173 0.0176,2.65642 -0.93486,3.76062 -1.10772,1.28411 -2.46945,1.17475 -4.00403,1.17827 0,0 -9.87778,0 -9.87778,0 -3.90878,-0.0529 -5.27403,-1.90147 -5.29167,-5.64444 0,0 0,-19.40279 0,-19.40279 0,0 0,-52.91669 0,-52.91669 0,-0.68086 -0.0423,-1.79211 0.21167,-2.40947 0.4833,-1.17828 4.57905,-4.05694 5.78555,-5.10117 0,0 7.40834,-6.5793 7.40834,-6.5793 z"
       style="fill:#00bb00;fill-opacity:1;stroke:none" />
  </g>
</svg>
