<?xml version="1.0" encoding="UTF-8" standalone="no"?>
<svg
   xmlns:osb="http://www.openswatchbook.org/uri/2009/osb"
   xmlns:dc="http://purl.org/dc/elements/1.1/"
   xmlns:cc="http://creativecommons.org/ns#"
   xmlns:rdf="http://www.w3.org/1999/02/22-rdf-syntax-ns#"
   xmlns:svg="http://www.w3.org/2000/svg"
   xmlns="http://www.w3.org/2000/svg"
   width="64"
   height="64"
   viewBox="0 0 16.933333 16.933334"
   version="1.1"
   id="svg8">
  <defs
     id="defs2">
    <linearGradient
       id="linearGradient3048"
       osb:paint="solid">
      <stop
         style="stop-color:#ff7700;stop-opacity:1;"
         offset="0"
         id="stop3046" />
    </linearGradient>
  </defs>
  <metadata
     id="metadata5">
    <rdf:RDF>
      <cc:Work
         rdf:about="">
        <dc:format>image/svg+xml</dc:format>
        <dc:type
           rdf:resource="http://purl.org/dc/dcmitype/StillImage" />
        <dc:title></dc:title>
      </cc:Work>
    </rdf:RDF>
  </metadata>
  <g
     id="layer2"
     style="display:inline"
     transform="translate(-1.2727205,-0.72975962)" />
  <g
     id="layer3"
     style="display:inline"
     transform="translate(-1.2727205,-0.72975962)" />
  <g
     id="layer4"
     style="display:inline"
     transform="translate(-1.2727205,-0.72975962)" />
  <g
     id="layer5"
     style="display:inline"
     transform="translate(-1.2727205,-0.72975962)" />
  <g
     id="layer6"
     style="display:inline"
     transform="translate(-1.2727205,-0.72975962)" />
  <g
     id="layer7"
     style="display:inline"
     transform="translate(-1.2727205,-0.72975962)">
    <path
       id="globe"
       fill="none"
       stroke="#000000"
       stroke-width="0.352778"
       d="M 9.8118857,0.85646711 C 10.935256,1.1549423 11.802148,1.5255518 12.697253,2.2949833 c 0.217044,0.1865873 0.60689,0.5302667 0.737373,0.773599 0,0 -1.218267,0.3273287 -1.218267,0.3273287 -0.100026,0.02148 -0.357465,0.096499 -0.445629,0.067326 -0.09682,-0.03206 -0.144269,-0.1513214 -0.191075,-0.2343563 0,0 -0.306491,-0.5129546 -0.306491,-0.5129546 C 10.995528,2.2715795 10.62043,1.7999823 10.278995,1.401481 10.091446,1.1825136 9.98629,1.117112 9.8118857,0.85646711 Z M 3.2396598,3.0685823 C 3.3678982,2.8294177 3.7914064,2.4459838 4.0090912,2.2645265 4.5839208,1.7849143 5.2623028,1.3851305 5.9647291,1.1232033 6.1942762,1.0376041 6.5597563,0.90872432 6.7982802,0.88852667 6.6431111,1.1203179 6.4847367,1.2562508 6.309371,1.4656003 5.9743476,1.865384 5.6463773,2.2728618 5.3690613,2.715926 c 0,0 -0.3093758,0.5129546 -0.3093758,0.5129546 -0.04328,0.079187 -0.097782,0.2032579 -0.190755,0.2317908 -0.077263,0.023725 -0.3504117,-0.051616 -0.4430642,-0.071493 0,0 -1.1862065,-0.3205965 -1.1862065,-0.3205961 z m 4.616588,-2.051817 c 0,0 0.03206,0.89767 0.03206,0.89767 0,0 0,1.9235784 0,1.9235784 0,0 -0.4808943,-0.03206 -0.4808943,-0.03206 0,0 -1.6350414,-0.1602982 -1.6350414,-0.1602982 C 5.8592529,3.4513746 6.016025,3.2166975 6.1356074,3.0365225 6.7021007,2.1856601 7.1416388,1.7313747 7.8562478,1.0167653 Z m 0.8976699,0 c 0.229547,0.1641453 0.6415138,0.610095 0.8383594,0.8335507 0.4110049,0.4667887 1.0101999,1.240067 1.2775769,1.7953397 0,0 -1.6029818,0.1602982 -1.6029818,0.1602982 0,0 -0.5129545,0.03206 -0.5129545,0.03206 0,0 0,-2.8212484 0,-2.8212486 z m -7.11724,5.9951536 c 0.017633,-0.7995674 0.2933457,-1.7796315 0.6341397,-2.5006523 0,0 0.272507,-0.5129546 0.272507,-0.5129546 0.044242,-0.075019 0.094576,-0.173122 0.1862665,-0.1955633 0.089767,-0.022121 0.4318432,0.1045138 0.5421288,0.135933 0,0 1.282385,0.316108 1.282385,0.316108 -0.374456,0.9419118 -0.5594403,1.7485322 -0.6411921,2.7571292 0,0 -2.2762349,0 -2.2762349,0 z M 12.12018,4.2547897 c 0,0 1.282386,-0.316108 1.282386,-0.316108 0.109644,-0.031098 0.453003,-0.1580545 0.541807,-0.135933 0.08816,0.0218 0.139139,0.1231083 0.182099,0.1955633 0.104194,0.1769698 0.206144,0.3565032 0.288537,0.5450144 0.335344,0.7694314 0.604004,1.6212562 0.622598,2.4685925 0,0 -2.308294,0 -2.308294,0 -0.07021,-0.5315491 -0.109965,-1.0483505 -0.247821,-1.5709227 0,0 -0.361312,-1.1862065 -0.361312,-1.1862065 z M 5.3876558,4.415088 c 0.3308557,0.083355 1.6071501,0.2237763 1.9556379,0.224417 0,0 0.545014,0.03206 0.545014,0.03206 0,0 0,2.3403541 0,2.3403541 0,0 -3.1418449,0 -3.1418449,0 C 4.7512702,6.4832552 4.9086849,5.7555012 5.0664186,5.2486381 5.1491319,4.9825428 5.2536467,4.6568172 5.3876558,4.415088 Z m 3.3662619,0.2564768 c 0,0 0.5129545,-0.03206 0.5129545,-0.03206 0,0 1.2503258,-0.1051555 1.2503258,-0.1051555 0,0 0.480894,-0.066363 0.480894,-0.066363 0.06733,-0.00705 0.180176,-0.031739 0.243333,0 0.104515,0.046487 0.229547,0.4687116 0.269622,0.588294 0.192037,0.5754711 0.379265,1.349391 0.384716,1.9556388 0,0 -3.1418453,0 -3.1418453,0 0,0 0,-2.3403541 0,-2.3403543 z m -7.11724,3.1418444 c 0,0 2.2762349,0 2.2762349,0 0,0 0.068928,0.6091332 0.068928,0.6091332 0,0 0.1673513,0.8976707 0.1673513,0.8976707 0,0 0.3728539,1.2503249 0.3728539,1.2503249 0,0 -1.282386,0.316109 -1.282386,0.316109 -0.098102,0.02789 -0.4350493,0.151962 -0.5097483,0.135292 C 2.6423886,11.002382 2.5898109,10.898189 2.5478128,10.827016 2.4436189,10.650046 2.3416693,10.470513 2.259276,10.282002 1.9216879,9.5077619 1.6552724,8.6655548 1.6366777,7.8134092 Z m 3.1097851,0 c 0,0 3.1418449,0 3.1418449,0 0,0 0,1.7632808 0,1.7632808 C 7.6600434,9.63023 7.5067981,9.7248052 7.3464999,9.8976072 7.2179407,10.036425 7.2092846,10.134207 7.0836107,10.178449 c -0.1106054,0.03911 -0.2664152,0.03366 -0.38151,0.04488 0,0 -0.86561,0.09971 -0.86561,0.09971 -0.1086824,0.01475 -0.3728539,0.08528 -0.4600556,0.0234 C 5.2837826,10.28104 5.1616357,9.8607382 5.120599,9.7369883 4.9378594,9.1887685 4.7589667,8.3895211 4.7464628,7.8134092 Z m 4.0074549,0 c 0,0 3.1418453,0 3.1418453,0 -0.0087,0.3911285 -0.102912,0.8662516 -0.185626,1.2503262 -0.02469,0.1138116 -0.07502,0.3802277 -0.157413,0.4571711 -0.09201,0.08624 -0.541487,0.111567 -0.68287,0.1243907 -0.56489,0.074058 -1.5629074,0.094577 -2.1159363,0 0,0 0,-1.831888 0,-1.831888 z m 3.9753953,0 c 0,0 2.308294,0 2.308294,0 -0.168954,0.2353178 -0.438255,0.4228675 -0.673252,0.5905387 -0.604645,0.4315227 -1.159597,0.6828704 -1.859459,0.9162652 0,0 0.119582,-0.641193 0.119582,-0.641193 0,0 0.104835,-0.8656109 0.104835,-0.8656109 z M 7.054757,11.019374 c 0.1465131,0.357786 -0.014106,0.551746 -0.098423,0.86561 -0.029174,0.108041 -0.029174,0.178893 -0.029815,0.288537 -9.633e-4,0.187549 0.027892,0.65049 -0.03206,0.801491 -0.3680447,-0.518404 -0.8976698,-1.22019 -1.1541467,-1.79534 0,0 1.3144449,-0.160298 1.3144447,-0.160298 z m -3.8150972,0.737372 c 0,0 1.1862065,-0.327329 1.1862065,-0.327329 0,0 0.4366528,-0.06829 0.4366528,-0.06829 0,0 0.162542,0.203258 0.162542,0.203258 0,0 0.2856513,0.512954 0.2856513,0.512954 0,0 0.7299987,1.090028 0.7299987,1.090028 0,0 0.5331512,0.705312 0.5331512,0.705312 C 6.2975087,13.833569 5.9358755,13.690583 5.6761925,13.579336 5.0478232,13.310356 4.4627354,12.943914 3.9449716,12.498285 3.7170276,12.30208 3.3893781,12.013223 3.2396598,11.756746 Z"
       style="display:inline;fill:#cccccc;fill-opacity:1;stroke:#777777;stroke-width:0.11387;stroke-miterlimit:4;stroke-dasharray:none;stroke-opacity:1" />
    <path
       id="arrow"
       fill="none"
       stroke="#000000"
       stroke-width="0.0320596"
       d="m 16.897067,8.1660655 c -0.08624,0.1913966 -0.208388,0.2946282 -0.34368,0.448835 -0.299436,0.3414356 -0.671329,0.6684435 -1.034885,0.941592 -1.296492,0.9742925 -2.7847,1.5205895 -4.39217,1.6924285 0,0 -0.705313,0.05899 -0.705313,0.05899 -0.6293312,9.63e-4 -1.2669972,0.02597 -1.8915187,-0.05514 -0.5584798,-0.07278 -0.6068894,-0.05194 -0.6091332,-0.361633 0,0 0,-0.256477 0,-0.256477 0.00193,-0.09137 -9.633e-4,-0.197166 0.1009879,-0.235958 0.075019,-0.02885 0.2907804,0.02244 0.379906,0.03462 0,0 0.8656109,0.0731 0.8656109,0.0731 0,0 0.4167751,0.03206 0.4167751,0.03206 0,0 0.2564768,0 0.2564768,0 0,0 0.4167762,-0.03078 0.4167762,-0.03078 1.641133,-0.07149 3.254374,-0.5386022 4.584529,-1.5282829 0.363235,-0.270263 0.696976,-0.5738681 0.999299,-0.9095321 0.0638,-0.070852 0.288216,-0.3010406 0.31707,-0.3754185 0.0327,-0.084638 -0.04232,-0.1333685 -0.09906,-0.1830604 -0.108683,-0.095538 -0.37061,-0.2584007 -0.285332,-0.4318435 0.05707,-0.116697 0.295911,-0.187228 0.414532,-0.227944 0,0 1.025908,-0.3661216 1.025908,-0.3661216 0.113491,-0.042639 0.324764,-0.141383 0.441462,-0.090729 0.09522,0.041358 0.103552,0.1417038 0.09778,0.2324324 0,0 -0.09842,0.5770734 -0.09842,0.5770734 0,0 -0.165427,0.9297296 -0.165427,0.9297296 -0.02052,0.1208655 -0.03206,0.2811638 -0.180496,0.3087342 -0.154848,0.029174 -0.371251,-0.1949217 -0.511672,-0.2766744 z"
       style="display:inline;fill:#1abc9c;fill-opacity:1;stroke:none;stroke-opacity:0" />
    <path
       id="red"
       fill="none"
       stroke="#000000"
       stroke-width="0.0320596"
       d="m 7.831562,12.007773 c 0.1356122,-0.02084 0.446911,0.04136 0.6017593,0.06059 0,0 0.6732529,0.05963 0.6732529,0.05963 0.097782,0.01282 0.3423971,0.0035 0.4068367,0.04617 0.088485,0.05899 0.073737,0.194602 0.074058,0.287896 0,0 0,3.366262 0,3.366262 0,0 0,1.186207 0,1.186207 0,0.149077 0.022762,0.383112 -0.06444,0.506222 -0.1009879,0.143307 -0.2612861,0.13465 -0.4164543,0.13497 0,0 -0.9617895,0 -0.9617895,0 -0.3908068,-0.0055 -0.4161344,-0.250706 -0.4167751,-0.577073 0,0 0,-3.815097 0,-3.815097 0,0 0,-0.99385 0,-0.99385 0.00193,-0.129199 -0.00898,-0.186266 0.1035524,-0.261926 z"
       style="display:inline;fill:#dd0000;fill-opacity:1;stroke:none;stroke-opacity:1" />
    <path
       id="orange"
       fill="none"
       stroke="#000000"
       stroke-width="0.352778"
       d="m 12.08812,11.933074 c 0.181138,0.0035 0.189152,0.07598 0.192358,0.240447 0,0 0,1.635041 0,1.635041 0,0 0,2.917428 0,2.917428 0,0.25263 0.07887,0.785461 -0.19364,0.902479 -0.0747,0.03206 -0.174725,0.02725 -0.255195,0.02725 0,0 -0.89767,0 -0.89767,0 -0.35522,-0.0048 -0.479291,-0.172801 -0.480894,-0.512953 0,0 0,-1.795341 0,-1.795341 0,0 0,-2.917427 0,-2.917427 3.63e-4,-0.09425 -0.01507,-0.223456 0.07406,-0.283087 0.07534,-0.05001 0.329252,-0.03655 0.438896,-0.05097 0,0 1.122087,-0.162863 1.122087,-0.162863 z"
       style="display:inline;fill:#ee6600;fill-opacity:1;stroke:none;stroke-width:0.0320798;stroke-miterlimit:4;stroke-dasharray:none" />
    <path
       id="yellow"
       fill="none"
       stroke="#000000"
       stroke-width="0.0320596"
       d="m 14.812549,10.982826 c 0.187549,0.01571 0.160619,0.139459 0.16094,0.293025 0,0 0,1.8274 0,1.8274 0,0 0,3.46244 0,3.46244 0,0.333101 0.09554,0.914021 -0.288538,1.061495 -0.08528,0.0327 -0.197808,0.02853 -0.288537,0.02853 0,0 -0.86561,0 -0.86561,0 -0.250386,-0.0035 -0.375097,-0.09009 -0.388563,-0.352655 0,0 0,-0.352656 0,-0.352656 0,0 0,-1.538863 0,-1.538863 0,0 0,-3.462441 0,-3.462441 0.0042,-0.103553 -0.01026,-0.220571 0.0779,-0.293667 0,0 0.535076,-0.206464 0.535076,-0.206464 0,0 0.448835,-0.18306 0.448835,-0.18306 0.187549,-0.08592 0.419019,-0.229227 0.608492,-0.283087 z"
       style="display:inline;fill:#ffbb00;fill-opacity:1;stroke:none" />
    <path
       id="green"
       fill="none"
       stroke="#000000"
       stroke-width="0.0320596"
       d="m 17.057365,9.2900772 c 0.08816,-0.023404 0.51584,-0.022122 0.571623,0.04841 0.05643,0.072134 0.03751,0.3917693 0.03751,0.49468 0,0 0,1.3144458 0,1.3144458 0,0 0,5.001303 0,5.001303 0,0 0,1.057968 0,1.057968 -6.36e-4,0.123751 0.0016,0.24141 -0.08496,0.341757 -0.100667,0.116697 -0.224418,0.106758 -0.363877,0.107078 0,0 -0.89767,0 -0.89767,0 -0.355221,-0.0048 -0.479291,-0.172801 -0.480894,-0.512953 0,0 0,-1.763281 0,-1.763281 0,0 0,-4.808947 0,-4.808947 0,-0.06188 -0.0038,-0.162862 0.01924,-0.218967 0.04392,-0.107079 0.416133,-0.3686846 0.525777,-0.4635818 0,0 0.673253,-0.5979116 0.673253,-0.5979116 z"
       style="fill:#00bb00;fill-opacity:1;stroke:none" />
  </g>
</svg>
